<?xml version="1.0" standalone="no"?><!DOCTYPE svg PUBLIC "-//W3C//DTD SVG 1.1//EN" "http://www.w3.org/Graphics/SVG/1.1/DTD/svg11.dtd"><svg t="1588150716474" class="icon" viewBox="0 0 1024 1024" version="1.1" xmlns="http://www.w3.org/2000/svg" p-id="4344" xmlns:xlink="http://www.w3.org/1999/xlink" width="200" height="200"><defs><style type="text/css"></style></defs><path d="M128 64a64 64 0 0 0-64 64v768a64 64 0 0 0 64 64h768a64 64 0 0 0 64-64V128a64 64 0 0 0-64-64H128z m0-64h768a128 128 0 0 1 128 128v768a128 128 0 0 1-128 128H128a128 128 0 0 1-128-128V128a128 128 0 0 1 128-128z" fill="#999999" p-id="4345"></path><path d="M284.416 260.544a32 32 0 1 1 0 64H170.688a32 32 0 1 1 0-64h113.728zM568.896 260.544a32 32 0 0 1 0 64H455.04a32 32 0 1 1 0-64H568.96zM853.312 260.544a32 32 0 1 1 0 64h-113.728a32 32 0 1 1 0-64h113.728zM284.416 480a32 32 0 1 1 0 64H170.688a32 32 0 1 1 0-64h113.728zM568.896 480a32 32 0 0 1 0 64H455.04a32 32 0 0 1 0-64H568.96zM853.312 480a32 32 0 1 1 0 64h-113.728a32 32 0 1 1 0-64h113.728zM284.416 699.456a32 32 0 0 1 0 64H170.688a32 32 0 1 1 0-64h113.728zM568.896 699.456a32 32 0 0 1 0 64H455.04a32 32 0 1 1 0-64H568.96zM853.312 699.456a32 32 0 0 1 0 64h-113.728a32 32 0 1 1 0-64h113.728z" fill="#999999" p-id="4346"></path></svg>