<?xml version="1.0" encoding="utf-8"?>
<!-- Generator: Adobe Illustrator 22.0.1, SVG Export Plug-In . SVG Version: 6.00 Build 0)  -->
<svg version="1.1" id="图层_1" xmlns="http://www.w3.org/2000/svg" xmlns:xlink="http://www.w3.org/1999/xlink" x="0px" y="0px"
	 viewBox="0 0 200 200" style="enable-background:new 0 0 200 200;" xml:space="preserve">
<style type="text/css">
	.st0{fill:#333333;}
</style>
<path class="st0" d="M56.2,68.8h87.5c3.4,0,6.2-2.8,6.2-6.3s-2.8-6.2-6.2-6.2H56.2c-3.5,0-6.2,2.8-6.2,6.2S52.8,68.8,56.2,68.8
	L56.2,68.8z M143.8,93.7H56.2c-3.5,0-6.2,2.8-6.2,6.2c0,3.4,2.8,6.3,6.2,6.3h87.5c3.4,0,6.2-2.8,6.2-6.2
	C150,96.5,147.2,93.7,143.8,93.7L143.8,93.7z M143.8,131.2H56.2c-3.5,0-6.2,2.8-6.2,6.2c0,3.5,2.8,6.2,6.2,6.2h87.5
	c3.4,0,6.2-2.8,6.2-6.2C150,134,147.2,131.2,143.8,131.2L143.8,131.2z M81.8,31.2H113c5.2,0,9.4-4.2,9.4-9.4s-4.2-9.4-9.4-9.4H81.8
	c-5.2,0-9.4,4.2-9.4,9.4S76.6,31.2,81.8,31.2L81.8,31.2z M162.5,18.7h-6.2c-3.4,0-6.2,2.8-6.2,6.2s2.8,6.2,6.2,6.2h6.2
	c6.9,0,12.5,5.6,12.5,12.5v118.8c0,6.9-5.6,12.5-12.5,12.5h-125c-6.9,0-12.5-5.6-12.5-12.5V43.7c0-6.9,5.6-12.5,12.5-12.5h6.2
	c3.5,0,6.2-2.8,6.2-6.2s-2.8-6.2-6.2-6.2h-6.2c-13.8,0-25,11.2-25,25v118.8c0,13.8,11.2,25,25,25h125c13.8,0,25-11.2,25-25V43.7
	C187.5,29.9,176.3,18.7,162.5,18.7L162.5,18.7z"/>
</svg>
